<svg width="120" height="120" xmlns="http://www.w3.org/2000/svg">
 <g>
  <title>Layer 1</title>
  <g id="svg_1" stroke="null">
   <!-- 灰色背景圆 -->
   <circle fill="#E8E8E8" r="57.49999" cy="60" cx="59.5" id="svg_2" stroke="null"/>
   <!-- 原始图形保持不变 -->
   <g id="svg_3" stroke="null">
    <path d="m52.54149,30.625c10.70991,2.22775 21.67487,3.89437 32.89477,5c9.26355,2.87325 13.0591,9.12325 11.38665,18.75c-0.09337,-8.23962 -4.31061,-13.44787 -12.65184,-15.625c-11.68878,-2.60325 -23.49712,-3.4365 -35.42514,-2.5c-2.50279,3.12162 -3.13538,6.66337 -1.89778,10.625c2.76417,5.462 5.50545,10.87862 8.22369,16.25c-0.96862,5.81312 -4.34236,7.68812 -10.12147,5.625c-7.51671,-9.15037 -10.25798,-19.35875 -8.22369,-30.625c1.74039,-1.50637 3.21648,-3.173 4.42814,-5c3.36855,-2.21012 7.1641,-3.04337 11.38665,-2.5l0.00002,0z" fill="#151515" id="svg_4" stroke="null"/>
   </g>
   <g id="svg_5" stroke="null">
    <path d="m90.49699,68.125c-7.56732,9.07887 -15.15842,18.2455 -22.7733,27.5c-3.7285,2.75487 -7.94586,4.00487 -12.65184,3.75c1.26518,-0.83337 2.53037,-1.66662 3.79555,-2.5c11.9532,-9.001 21.23117,-20.251 27.83404,-33.75c-0.97293,-3.2555 -3.08161,-5.54712 -6.32592,-6.875c-7.20623,-0.21262 -14.37552,-0.83762 -21.50812,-1.875c-3.30592,-3.58925 -3.30592,-7.13087 0,-10.625c7.22951,-0.79037 14.39893,-0.37375 21.50812,1.25c11.26545,3.987 14.63931,11.69525 10.12147,23.125z" fill="#111111" id="svg_6" stroke="null"/>
   </g>
   <g id="svg_7" stroke="null">
    <path d="m28.503,48.125c2.29201,8.67 5.45497,17.00337 9.48888,25c1.9351,6.94237 6.36324,9.65075 13.28443,8.125c5.25722,-5.806 9.89614,-12.056 13.91702,-18.75c8.93549,-0.32987 11.25507,3.62837 6.95851,11.875c-3.58464,4.375 -7.16942,8.75 -10.75406,13.125c-4.59375,2.80437 -9.65449,3.846 -15.1822,3.125c-1.75266,-1.39225 -3.65043,-2.64225 -5.69333,-3.75c-6.29226,-11.56375 -11.353,-23.64712 -15.1822,-36.25c-0.62829,-2.88725 -0.8392,-5.804 -0.63259,-8.75c0.78112,-0.13837 1.41372,-0.555 1.89778,-1.25c0.24152,2.75975 0.87412,5.25975 1.89778,7.5l-0.00002,0z" fill="#121212" id="svg_8" stroke="null"/>
   </g>
  </g>
 </g>

</svg>